<svg xmlns="http://www.w3.org/2000/svg" width="260" height="117" fill="none" viewBox="0 0 260 117">
  <path fill="#7E57C2" d="M128.318 12.079a1.418 1.418 0 00-.841.745c-.157.327-.178.468-.232 1.611-.028.694-.103 2.01-.157 2.928-.089 1.625-.096 1.67-.253 1.766-.274.167-.876.719-1.115 1.027l-.226.289-.109 1.38c-.061.758-.232 2.98-.383 4.925-.417 5.4-.786 10.158-1.128 14.627-.171 2.221-.342 4.494-.369 5.04-.048.764-.096 1.079-.205 1.355-.301.738-.951 1.207-1.867 1.342-.588.083-.93.032-1.367-.219-.889-.5-1.682-1.894-2.311-4.077-.431-1.502-.547-2.144-1.778-10.055-.642-4.135-1.182-7.55-1.203-7.595-.02-.065-.062-.065-.164-.013-.109.057-.212.032-.533-.135-.493-.257-.684-.231-.862.115-.191.386-.444.7-.615.777-.178.077-.239.033-.479-.327a1.031 1.031 0 00-.786-.43c-.185 0-.308.064-.595.32-.444.392-.8.566-.937.457-.136-.103-.17-.334-.109-.713.062-.385.253-.655.554-.79.239-.103 1.169-.205 2.783-.295 1.046-.064 1.223-.039 1.497.205l.164.142-.041-.161a75.45 75.45 0 01-.287-1.798l-.246-1.637-.246-.212a18.736 18.736 0 00-.759-.578l-.506-.36.041-.487c.28-3.23.177-5.214-.335-6.678-.185-.514-.568-1.104-.848-1.297-.362-.244-.629-.302-.916-.212-.383.129-.636.385-.93.963-.568 1.105-.759 2.389-.793 5.208l-.028 2.054-.43.417c-.609.585-.855 1.066-.951 1.805-.294 2.395.78 11.621 2.756 23.667.143.898.15.937.027 1.284-.232.725-.574 1.232-1.217 1.836-.697.655-.684.655-1.518.27a4.146 4.146 0 01-1.572-1.317c-.424-.603-.479-.75-1.265-3.178a77.865 77.865 0 00-.711-2.138c-.014-.013-1.005.135-2.209.334-1.203.193-2.249.353-2.331.353-.17 0-.67-.507-.84-.867-.172-.353-.165-.674.026-.937.15-.206.212-.231 1.347-.52.657-.167 1.334-.34 1.504-.386l.308-.09.048-1.63c.157-5.002.164-5.458.055-5.458-.055 0-.958.077-1.997.173l-1.894.174-.136-.16c-.267-.296-.561-.893-.602-1.201-.034-.283-.02-.334.157-.514l.199-.199 1.64-.07a46.67 46.67 0 001.805-.103l.158-.033-.035-1.778c-.047-2.446-.273-3.711-.861-4.86-.232-.463-.273-.598-.342-1.317-.24-2.388-.745-4.488-1.176-4.854-.184-.154-.683-.141-.943.032-.253.174-.527.694-.616 1.194-.04.212-.136 1.336-.212 2.505l-.143 2.119-.274.372c-1.565 2.112-1.941 5.85-1.155 11.634.554 4.084 1.347 8.296 2.085 11.076.322 1.207 1.08 3.454 1.32 3.897.082.154.15.456.178.822.26 3.243 1.032 7.41 1.784 9.657.137.398.171.61.144.835-.308 2.298-.349 7.64-.076 9.733.253 1.99.431 2.485 1.429 3.936 3.371 4.931 5.86 8.996 6.571 10.73.212.507.259.77.553 3.01l.322 2.454h.759c.793 0 13.544.09 22.692.16l5.312.045v-.411c0-2.19.732-5.284 1.716-7.236 1.005-2.003 2.557-3.634 4.198-4.424.581-.276 3.699-4.25 5.484-6.98 1.593-2.446 2.98-5.11 3.582-6.895.151-.443.185-.488.677-.873.287-.225.902-.777 1.367-1.233 2.879-2.787 5.217-6.87 6.701-11.705.444-1.451.882-3.204.964-3.885.095-.783.034-1.843-.137-2.478l-.13-.475 1.463-4.29a543.66 543.66 0 001.463-4.308c0-.012-.143-.07-.314-.134-.862-.309-1.846-.033-2.762.776l-.493.437-1.258 2.363-1.258 2.363h-.328c-1.142.006-2.482.84-3.603 2.253-.526.662-.485.585-3.254 6.736l-.711 1.566-.65.623c-1.948 1.85-4.191 3.127-6.112 3.467-.534.097-1.696.097-2.079 0-1.005-.256-1.606-1.701-1.688-4.051-.035-.918 0-1.458.259-4.11l.294-3.05-.191-.506a4.732 4.732 0 00-1.224-1.843c-1.094-1.021-2.454-1.2-4.095-.533-.349.148-.431.212-.554.456-.233.45-1.839 2.504-2.414 3.088a2.08 2.08 0 01-.464.34c-.513.25-.951.122-1.498-.443l-.355-.36.048-1.9c.109-4.436.177-9.72.177-14.138V27.68l-.526-.045c-1.402-.109-2.031-.27-2.523-.642l-.198-.148.273-.256c.369-.34.807-.43 1.88-.373.431.02.855.058.944.077.15.039.15.032.15-.558 0-.976-.13-3.763-.212-4.482-.082-.803-.15-.963-.574-1.406l-.328-.347.157-3.095c.178-3.454.178-3.48-.246-3.948-.369-.398-1.176-.572-1.771-.38zm1.231.45c.137.108.301.301.369.43.116.224.109.333-.102 3.152a560.497 560.497 0 00-.233 3.114v.193l-.123-.142a.77.77 0 00-.308-.205c-.266-.096-.889-.084-1.36.02-.219.044-.404.076-.41.063-.014-.006.054-1.374.15-3.03l.171-3.018.212-.25c.335-.392.608-.533 1.025-.533.315 0 .404.032.609.205zm-18.105 1.155c.335.289.575 1.104.698 2.363.123 1.194.068 5.233-.069 5.355-.02.019-.205-.026-.41-.103-.403-.148-1.306-.186-1.935-.09l-.335.052.041-1.375c.123-3.75.588-5.926 1.354-6.292.253-.128.431-.103.656.09zm-12.805 6.748c.218.206.417.732.547 1.451.102.585.294 3.326.232 3.384-.02.013-.226-.02-.465-.077-.492-.116-.95-.051-1.21.18l-.157.135.007-.829c.013-2.06.102-3.647.232-3.93.198-.455.526-.583.814-.314zm29.802 15.75a39.34 39.34 0 011.292.514c.253.122.356.475.226.77l-.096.219h-.772c-.499 0-.869.032-1.046.096-.356.122-.616.122-.882 0-.424-.193-.704-.957-.527-1.464.096-.276.39-.559.568-.559.075 0 .629.193 1.237.424zm-13.537.989c.403.096.663.411.663.783 0 .386-.321.463-1.107.27-.52-.122-.951-.051-1.491.257-.554.314-1.402.36-1.689.083-.232-.218.178-.847.759-1.168.492-.27.951-.353 1.785-.328.417.013.902.058 1.08.103zm49.343 2.292c0 .032-.54 1.387-1.203 3.012l-1.204 2.966-.212-.225c-.225-.237-.54-.41-.984-.533-.164-.045-.294-.109-.294-.141 0-.077 1.141-2.1 1.757-3.114.574-.937.95-1.4 1.354-1.682.348-.231.786-.392.786-.283zm-36.715 7.956c.321.05.943.199 1.388.327.67.193.841.27 1.012.45.239.263.253.468.034.706l-.164.173-1.012-.302c-1.675-.494-2.325-.635-2.646-.59-.397.057-.971.314-1.313.578-.253.192-.328.211-.553.186-.828-.11-.965-.437-.39-.931.834-.72 1.866-.886 3.644-.597zm-12.033.97c.458.269.752.641.752.962 0 .225-.253.642-.486.803l-.171.122-.574-.302c-1.272-.674-2.434-1.008-3.015-.86a1.276 1.276 0 00-.875.873c-.048.173-.096.346-.11.385-.034.11-.964.366-1.162.321-.13-.032-.171-.083-.171-.218 0-.2.383-.835.67-1.13.561-.565 1.628-.95 3.022-1.092.534-.058 1.949.032 2.12.135zm-10.427 3.229c.335.096.718.45.718.661 0 .148-.034.167-.355.205-.869.103-1.06.193-1.689.803-.602.572-.841.706-1.327.706-.464 0-.936-.379-.936-.757 0-.238.478-1.207.69-1.4.288-.257.78-.347 1.771-.321.472.013.978.058 1.128.103zm48.229 2.8c.143.738.547 1.9.902 2.587.349.667.581.937 1.477 1.682.349.295.397.462.191.68-.239.27-.533.238-1.073-.121-.807-.546-1.367-1.432-1.969-3.121-.349-.963-.424-1.477-.267-1.753.076-.135.452-.379.581-.379.041 0 .11.193.158.424zm-26.453 4.66c0 .206-.137.488-.383.797-.348.423-.13.809.513.892.315.039.397.013 1.894-.642l1.566-.68.492.019c.403.02.52.045.663.173.246.218.287.514.13.957l-.13.366-1.053.038c-1.381.058-1.921.2-2.769.739-.184.115-3.924 1.714-8.307 3.55-4.382 1.83-8.929 3.737-10.112 4.238l-2.153.899-.267-.206c-.321-.23-.663-.712-.663-.918 0-.199.287-.494.595-.622 1.299-.514 1.798-.72 10.549-4.347l5.559-2.299c.793-.327.888-.385 1.012-.603.164-.309.164-.47-.007-.63-.192-.18-.602-.167-1.621.065-1.757.398-7.09 1.47-11.062 2.215-.301.057-.732.18-.957.27-1.272.52-2.325.526-2.708.019-.246-.328-.212-.392.383-.598 5.832-2.022 12.184-3.512 16.751-3.929 1.955-.173 2.085-.16 2.085.238zm6.625 3.802c.103.051.24.167.301.25.103.154.096.167-.608.822-1.245 1.156-1.983 2.093-2.216 2.812-.088.27-.225.501-.396.674-1.231 1.259-2.222 3.378-2.482 5.278-.123.931-.048 2.723.15 3.493.158.604.158.668.178 5.194l.021 4.585-.151-.097c-.54-.333-1.415-1.996-2.215-4.199l-.321-.892.013-1.605c.028-4.687.67-8.328 1.682-9.574.096-.115.725-1.155 1.409-2.317 1.292-2.19 1.613-2.633 2.543-3.493.93-.86 1.614-1.163 2.092-.931zm-13.455 12.944c.274.07 1.21.937 1.778 1.637 1.798 2.222 2.899 4.707 3.507 7.898.287 1.509.349 2.074.342 3.242-.007 1.246-.13 1.862-.486 2.433-.205.34-1.073 1.208-1.258 1.259-.362.11-.574-.308-.526-1.06.027-.436.075-.577.349-1.104.471-.886.574-1.843.355-3.217-.109-.693-.15-.79-1.046-2.62-.342-.693-1.21-2.529-1.928-4.076-.718-1.554-1.442-3.082-1.607-3.397-.171-.321-.307-.655-.307-.751 0-.283.314-.379.827-.244z"/>
  <path fill="#fff" d="M166.56 76.4a2.485 2.485 0 00-1.1-1.06c-.467-.253-1.02-.38-1.66-.38-1.107 0-1.993.367-2.66 1.1-.667.72-1 1.687-1 2.9 0 1.293.347 2.307 1.04 3.04.707.72 1.673 1.08 2.9 1.08.84 0 1.547-.213 2.12-.64.587-.427 1.013-1.04 1.28-1.84h-4.34v-2.52h7.44v3.18a6.632 6.632 0 01-1.3 2.38c-.6.733-1.367 1.327-2.3 1.78-.933.453-1.987.68-3.16.68-1.387 0-2.627-.3-3.72-.9a6.638 6.638 0 01-2.54-2.54c-.6-1.08-.9-2.313-.9-3.7s.3-2.62.9-3.7a6.461 6.461 0 012.54-2.54c1.08-.613 2.313-.92 3.7-.92 1.68 0 3.093.407 4.24 1.22 1.16.813 1.927 1.94 2.3 3.38h-3.78zm5.234 4c0-1.147.214-2.153.64-3.02.44-.867 1.034-1.533 1.78-2 .747-.467 1.58-.7 2.5-.7.787 0 1.474.16 2.06.48.6.32 1.06.74 1.38 1.26v-1.58h3.42V86h-3.42v-1.58c-.333.52-.8.94-1.4 1.26-.586.32-1.273.48-2.06.48a4.588 4.588 0 01-2.48-.7c-.746-.48-1.34-1.153-1.78-2.02-.426-.88-.64-1.893-.64-3.04zm8.36.02c0-.853-.24-1.527-.72-2.02a2.274 2.274 0 00-1.72-.74c-.68 0-1.26.247-1.74.74-.466.48-.7 1.147-.7 2s.234 1.533.7 2.04c.48.493 1.06.74 1.74.74.68 0 1.254-.247 1.72-.74.48-.493.72-1.167.72-2.02zm20.135-5.7c1.386 0 2.486.42 3.3 1.26.826.84 1.24 2.007 1.24 3.5V86h-3.4v-6.06c0-.72-.194-1.273-.58-1.66-.374-.4-.894-.6-1.56-.6-.667 0-1.194.2-1.58.6-.374.387-.56.94-.56 1.66V86h-3.4v-6.06c0-.72-.194-1.273-.58-1.66-.374-.4-.894-.6-1.56-.6-.667 0-1.194.2-1.58.6-.374.387-.56.94-.56 1.66V86h-3.42V74.84h3.42v1.4a3.57 3.57 0 011.36-1.1c.56-.28 1.193-.42 1.9-.42.84 0 1.586.18 2.24.54.666.36 1.186.873 1.56 1.54a4.488 4.488 0 011.58-1.5 4.266 4.266 0 012.18-.58zm17.451 5.52c0 .32-.02.653-.06 1h-7.74c.054.693.274 1.227.66 1.6.4.36.887.54 1.46.54.854 0 1.447-.36 1.78-1.08h3.64a4.914 4.914 0 01-1.02 1.98 4.958 4.958 0 01-1.82 1.38c-.733.333-1.553.5-2.46.5-1.093 0-2.066-.233-2.92-.7a4.981 4.981 0 01-2-2c-.48-.867-.72-1.88-.72-3.04 0-1.16.234-2.173.7-3.04a4.981 4.981 0 012-2c.854-.467 1.834-.7 2.94-.7 1.08 0 2.04.227 2.88.68.84.453 1.494 1.1 1.96 1.94.48.84.72 1.82.72 2.94zm-3.5-.9c0-.587-.2-1.053-.6-1.4-.4-.347-.9-.52-1.5-.52-.573 0-1.06.167-1.46.5-.386.333-.626.807-.72 1.42h4.28zm8.725-2.64c.4-.613.9-1.093 1.5-1.44.6-.36 1.266-.54 2-.54v3.62h-.94c-.854 0-1.494.187-1.92.56-.427.36-.64 1-.64 1.92V86h-3.42V74.84h3.42v1.86zM27.88 48.2h6.04V51H24v-2.6l6-8.64h-6v-2.8h9.92v2.6l-6.04 8.64zm13.354 2.96c-1.093 0-2.08-.233-2.96-.7a5.21 5.21 0 01-2.06-2c-.493-.867-.74-1.88-.74-3.04 0-1.147.253-2.153.76-3.02a5.139 5.139 0 012.08-2.02c.88-.467 1.867-.7 2.96-.7s2.08.233 2.96.7a5.14 5.14 0 012.08 2.02c.507.867.76 1.873.76 3.02s-.26 2.16-.78 3.04a5.144 5.144 0 01-2.1 2c-.88.467-1.867.7-2.96.7zm0-2.96c.653 0 1.207-.24 1.66-.72.467-.48.7-1.167.7-2.06s-.227-1.58-.68-2.06c-.44-.48-.987-.72-1.64-.72-.667 0-1.22.24-1.66.72-.44.467-.66 1.153-.66 2.06 0 .893.213 1.58.64 2.06.44.48.987.72 1.64.72zm21.894-8.48c1.387 0 2.487.42 3.3 1.26.827.84 1.24 2.007 1.24 3.5V51h-3.4v-6.06c0-.72-.193-1.273-.58-1.66-.373-.4-.893-.6-1.56-.6-.666 0-1.193.2-1.58.6-.373.387-.56.94-.56 1.66V51h-3.4v-6.06c0-.72-.193-1.273-.58-1.66-.373-.4-.893-.6-1.56-.6-.666 0-1.193.2-1.58.6-.373.387-.56.94-.56 1.66V51h-3.42V39.84h3.42v1.4c.347-.467.8-.833 1.36-1.1.56-.28 1.194-.42 1.9-.42.84 0 1.587.18 2.24.54.667.36 1.187.873 1.56 1.54a4.497 4.497 0 011.58-1.5 4.269 4.269 0 012.18-.58zm10.352 1.7c.32-.52.78-.94 1.38-1.26.6-.32 1.287-.48 2.06-.48.92 0 1.754.233 2.5.7.747.467 1.334 1.133 1.76 2 .44.867.66 1.873.66 3.02s-.22 2.16-.66 3.04c-.426.867-1.013 1.54-1.76 2.02a4.62 4.62 0 01-2.5.7c-.786 0-1.473-.153-2.06-.46a3.712 3.712 0 01-1.38-1.26V51h-3.42V36.2h3.42v5.22zm4.88 3.98c0-.853-.24-1.52-.72-2-.466-.493-1.046-.74-1.74-.74-.68 0-1.26.247-1.74.74-.466.493-.7 1.167-.7 2.02s.234 1.527.7 2.02c.48.493 1.06.74 1.74.74.68 0 1.26-.247 1.74-.74.48-.507.72-1.187.72-2.04zm6.995-6.72c-.6 0-1.094-.173-1.48-.52-.374-.36-.56-.8-.56-1.32 0-.533.186-.973.56-1.32.386-.36.88-.54 1.48-.54.586 0 1.066.18 1.44.54.386.347.58.787.58 1.32 0 .52-.194.96-.58 1.32-.374.347-.854.52-1.44.52zm1.7 1.16V51h-3.42V39.84h3.42z"/>
</svg>
