<svg xmlns="http://www.w3.org/2000/svg" width="29" height="38" fill="none" viewBox="0 0 29 38">
  <path stroke="#202020" stroke-linecap="round" stroke-linejoin="round" stroke-width="2" d="M8.5 26.458h.019M8.5 4.917H4.75a3.67 3.67 0 00-2.652 1.147A4.007 4.007 0 001 8.834v23.5c0 1.038.395 2.034 1.098 2.769A3.67 3.67 0 004.75 36.25H23.5a3.67 3.67 0 002.652-1.147 4.007 4.007 0 001.098-2.77v-23.5a4.007 4.007 0 00-1.098-2.77A3.671 3.671 0 0023.5 4.918h-15zm0 0c0 1.038.395 2.035 1.098 2.77a3.67 3.67 0 002.652 1.146H16c.995 0 1.948-.412 2.652-1.147a4.007 4.007 0 001.098-2.77H8.5zm0 0c0-1.04.395-2.035 1.098-2.77A3.67 3.67 0 0112.25 1H16c.995 0 1.948.413 2.652 1.147a4.007 4.007 0 011.098 2.77H8.5zm5.625 13.708h5.625-5.625zm0 7.833h5.625-5.625zM8.5 18.625h.019H8.5z"/>
</svg>
