<svg xmlns="http://www.w3.org/2000/svg" width="805" height="747" fill="none" viewBox="0 0 805 747">
  <path fill="#7E57C2" d="M691.575 206.904a612.441 612.441 0 01-13.491-8.561C630.025 166.969 405.221 24.472 310.44 37.544 204.019 52.29-21.767 376.488 35.758 472.582c57.525 96.094 345.136 262.944 421.353 236.201 76.218-26.742 280.43-320.268 293.374-392.324 11.045-61.538-42.906-99.709-58.91-109.555z"/>
  <path fill="#fff" d="M691.575 206.904a612.441 612.441 0 01-13.491-8.561C630.025 166.969 405.221 24.472 310.44 37.544 204.019 52.29-21.767 376.488 35.758 472.582c57.525 96.094 345.136 262.944 421.353 236.201 76.218-26.742 280.43-320.268 293.374-392.324 11.045-61.538-42.906-99.709-58.91-109.555z" opacity=".8"/>
  <path stroke="#263238" stroke-linecap="round" stroke-linejoin="round" d="M791.057 609.193H17.597"/>
  <g opacity=".3">
    <path fill="#fff" stroke="#000" stroke-linecap="round" stroke-linejoin="round" d="M750.952 111.423H622.539v158.005h128.413V111.423z" opacity=".3"/>
    <path fill="#fff" stroke="#000" stroke-linecap="round" stroke-linejoin="round" d="M743.579 120.506h-113.65v139.853h113.65V120.506z" opacity=".3"/>
    <path fill="#fff" stroke="#000" stroke-linecap="round" stroke-linejoin="round" d="M712.28 158.991h-51.085v62.868h51.085v-62.868z" opacity=".3"/>
  </g>
  <g opacity=".3">
    <path fill="#fff" stroke="#000" stroke-linecap="round" stroke-linejoin="round" d="M105.165 121.328H51.424v66.124h53.741v-66.124z" opacity=".3"/>
    <path fill="#fff" stroke="#000" stroke-linecap="round" stroke-linejoin="round" d="M102.074 125.122h-47.56v58.52h47.56v-58.52z" opacity=".3"/>
    <path fill="#fff" stroke="#000" stroke-linecap="round" stroke-linejoin="round" d="M88.985 141.243H67.604v26.309h21.38v-26.309zM185.891 198.493h-53.742v66.124h53.742v-66.124z" opacity=".3"/>
    <path fill="#fff" stroke="#000" stroke-linecap="round" stroke-linejoin="round" d="M182.783 202.303h-47.559v58.52h47.559v-58.52z" opacity=".3"/>
    <path fill="#fff" stroke="#000" stroke-linecap="round" stroke-linejoin="round" d="M169.694 218.408h-21.381v26.309h21.381v-26.309zM50.039 206.62v49.87h71.258v-49.87H50.039z" opacity=".3"/>
    <path fill="#fff" stroke="#000" stroke-linecap="round" stroke-linejoin="round" d="M54.144 209.489v44.132h63.064v-44.132H54.144z" opacity=".3"/>
    <path fill="#fff" stroke="#000" stroke-linecap="round" stroke-linejoin="round" d="M71.5 221.635v19.84h28.352v-19.84H71.5zM189.578 94.242h-78.23v96.273h78.23V94.242z" opacity=".3"/>
    <path fill="#fff" stroke="#000" stroke-linecap="round" stroke-linejoin="round" d="M185.102 99.784h-69.247v85.203h69.247V99.784z" opacity=".3"/>
    <path fill="#fff" stroke="#000" stroke-linecap="round" stroke-linejoin="round" d="M166.023 123.225h-31.121v38.306h31.121v-38.306z" opacity=".3"/>
  </g>
  <path fill="#6E6E6E" stroke="#263238" stroke-linecap="round" stroke-linejoin="round" d="M233.917 373.097h-7.197v16.986h7.197v-16.986zM577.845 373.097h-7.197v16.986h7.197v-16.986z"/>
  <path fill="#6E6E6E" stroke="#263238" stroke-linecap="round" stroke-linejoin="round" d="M587.73 126.168H218.155v248.721H587.73V126.168z"/>
  <path fill="#263238" stroke="#263238" stroke-linecap="round" stroke-linejoin="round" d="M577.845 132.832H228.04v235.409h349.805V132.832z"/>
  <path fill="#E0E0E0" stroke="#263238" stroke-linecap="round" stroke-linejoin="round" d="M504.252 331.414l21.993 24.487.338-4.079 4.395-.941.338-2.51 4.395-1.27-19.964-25.428-11.495 9.741z"/>
  <path fill="#263238" stroke="#263238" stroke-linecap="round" stroke-linejoin="round" d="M515.747 321.673l-11.495 9.741 11.463 12.774 1.723-10.264a60.612 60.612 0 004.83-4.034l-6.521-8.217z"/>
  <path fill="#E0E0E0" stroke="#263238" stroke-linecap="round" stroke-linejoin="round" d="M531.992 300.951l23.684 29.88-4.058 2.824s-4.749 2.824-6.102 3.451a46.263 46.263 0 01-4.733 1.494l-1.691 3.526h-5.747l-18.612-27.041s0-2.824 3.719-6.589c3.719-3.765 13.54-7.545 13.54-7.545z"/>
  <path fill="#263238" stroke="#263238" stroke-linecap="round" stroke-linejoin="round" d="M531.992 300.951s-9.821 3.78-13.54 7.545c-3.719 3.765-3.719 6.589-3.719 6.589l9.097 13.192a30.702 30.702 0 002.64-3.138c3.22-4.482 8.549-1.494 8.549-1.494l2.125-7.933a5.508 5.508 0 011.468-2.151 6.074 6.074 0 012.348-1.315l-8.968-11.295z"/>
  <path fill="#7E57C2" stroke="#263238" stroke-linecap="round" stroke-linejoin="round" d="M505.943 241.625s10.143 11.952 14.2 20.094c4.057 8.142 19.626 24.487 23.345 27.31a66.785 66.785 0 0011.173 5.976s-13.54-5.976-17.935.941c-4.396 6.918-5.072 16.957-5.072 16.957s-8.13-3.137-9.821 2.197c-1.69 5.333-4.395 18.839-4.395 18.839s-10.143-4.079-13.186-2.51c-3.043 1.569-11.173 5.976-11.173 5.976l-3.043 3.765s-1.015-12.864 0-19.781c1.014-6.917 2.366-21.349 6.086-36.722 3.719-15.374 9.821-43.042 9.821-43.042z"/>
  <path fill="#263238" stroke="#263238" stroke-linecap="round" stroke-linejoin="round" d="M507.633 280.872l20.93 21.977s-12.188-23.232-13.202-28.267c-1.014-5.035-2.705-6.902-.676-11.294a44.785 44.785 0 013.3-5.319 154.805 154.805 0 00-11.656-15.941l-.596.478c-1.079 4.885-6.279 28.386-9.66 42.086a337.656 337.656 0 00-6.021 36.334c1.61-3.436 3.912-8.292 5.345-10.592 2.367-3.765 13.54 8.157 13.54 8.157s-8.791-15.373-8.05-20.094c.741-4.721 6.746-17.525 6.746-17.525z"/>
  <path fill="#7E57C2" stroke="#263238" stroke-linecap="round" stroke-linejoin="round" d="M393.613 212.746s-27.37-.942-41.603-6.604c-14.232-5.662-43.985-23.217-62.258-8.157-18.274 15.059-41.603 112.05-39.236 126.198 2.367 14.148 18.95 20.094 32.2 23.546 13.25 3.451 6.44 1.254 6.44 1.254l-1.771 18.541h204.003l1.691-30.134s1.69-27.624 5.087-37.051c3.397-9.427 11.496-33.585 11.157-47.091-.338-13.506 0-31.703-11.849-37.978-11.85-6.274-19.948-7.216-30.783-6.274-10.836.941-46.352-.314-51.424 0-5.071.313-21.654 3.75-21.654 3.75z"/>
  <path fill="#263238" stroke="#263238" stroke-linecap="round" stroke-linejoin="round" d="M509.324 253.233c-.081-3.347-.129-7.007-.322-10.697l-1.707-4.049s-6.762 18.212-8.05 19.422c-1.288 1.21-1.755-17.539-1.755-17.539l-5.071 7.843s1.014-13.804.676-18.212c-.338-4.407-8.453-9.098-9.805-9.726-1.352-.627-54.949-7.47-64.625 1.569-9.677 9.039-23.329 13.192-26.726 13.446a82.782 82.782 0 00-10.143 2.196 83.203 83.203 0 00-.339 11.295c.339 4.392.339 17.584.339 17.584a54.412 54.412 0 01-6.086-9.726c-4.057-7.47-10.497-18.212-10.497-19.153a172.87 172.87 0 00-2.367 21.036 29.887 29.887 0 01-1.014 9.098s-8.791-11.608-12.172-18.525c-3.381-6.918-8.469-16.942-8.469-16.942l-.676 27.937-9.467-23.904s4.396 29.193 3.043 33.899c-1.352 4.706-2.366 7.216-3.381 7.545-1.014.329-4.733-12.251-11.157-20.722-6.424-8.471-11.512-10.682-11.512-10.682s8.791 15.388 9.805 22.918c1.015 7.53-1.61 9.741-3.719 10.055-2.109.313-17.919-.942-28.754.313a93.219 93.219 0 00-20.93 5.334s28.432-2.824 33.504 0l4.25 2.361c-.805.074-2.334.971-5.265 4.482-5.425 6.588-11.849 16.643-10.497 21.976 1.353 5.334 2.705 9.099 1.61 9.726-1.095.628-9.515 12.759-9.515 12.759l16.921-.941-6.778 4.078 9.483-1.568s-1.014.941 1.352 3.451c2.367 2.51 10.482 7.216 10.482 7.216l4.395 1.897-15.553.628s3.719 2.823 11.834 3.765c8.114.941 9.145 1.568 10.159 1.568.708 0 .418 7.052.193 11.295h170.37l1.691-30.134s1.69-27.624 5.087-37.051c3.397-9.427 11.496-33.615 11.158-47.121z"/>
  <path fill="#CFCFCF" stroke="#263238" stroke-linecap="round" stroke-linejoin="round" d="M354.329 267.277l12.252 12.997s11.833 4.482 16.196 4.482c4.363 0 9.66 2.032 10.079 7.724.419 5.693-.886 13.446 0 17.928.885 4.482 5.249 12.595 3.928 15.03-.906 1.657-2.407 2.97-4.243 3.711a9.234 9.234 0 01-5.819.353c-5.249-1.225-8.308.806-10.063-8.128-1.755-8.934-2.624-11.772-2.624-11.772s-7.003 6.902-10.513 8.53c-3.51 1.629-7.873-.821-14.007 2.436-5.934 3.404-11.253 7.655-15.762 12.594-4.83 4.87-12.252 6.902-14.877 8.964a63.628 63.628 0 00-7.438 8.531s-12.252-4.482-9.193-9.353c3.059-4.87 0-4.482 2.19-7.305 2.189-2.824-4.83-20.722-3.059-21.126 1.771-.403 8.742-.403 8.742-6.902 0-6.499-4.83-15.029-4.83-16.658 0-1.628 9.193-17.928 11.818-11.369 2.624 6.558 9.659 11.787 13.572 10.966 3.912-.822 4.83-9.741 4.379-16.24-.451-6.499 7.438-8.964 10.062-9.756 2.625-.792 9.21 4.363 9.21 4.363z"/>
  <path fill="#263238" stroke="#263238" stroke-linecap="round" stroke-linejoin="round" d="M322.161 318.222s6.15 4.362 10.143-4.034c3.993-8.396 9.418-13.789 17.388-16.135a139.11 139.11 0 0018.112-7.47 41.004 41.004 0 01-7.599 9.412c-4.347 3.69-9.789 7.395-10.143 9.412-.354 2.017 0 1.001 8.694 0l8.694-1.016s-2.898 4.707-5.796 5.379c-2.898.672-14.136 2.36-18.853 5.722-4.717 3.361-7.422 7.306-11.946 11.429s-20.286 10.757-20.286.672c0-10.084 2.173-13.057 11.592-13.371z"/>
  <path stroke="#263238" stroke-linecap="round" stroke-linejoin="round" d="M374.035 309.527s-4.83-13.446 2.625-17.465M393.726 314.801s-3.494 0-3.059 2.435c.434 2.435 2.624 8.531 2.624 8.531"/>
  <path fill="#CFCFCF" stroke="#263238" stroke-linecap="round" stroke-linejoin="round" d="M348.645 249.812s-15.761-1.21-18.386 3.66c-2.624 4.87-.869 10.966 1.755 15.03 2.625 4.063 3.059 9.337 4.379 15.029 1.321 5.692 1.739 11.773 3.929 12.176 3.61.887 7.424.746 10.948-.403 5.683-1.628 7.003-4.482 7.003-8.112 0-3.631-1.32-10.981-1.32-13.82 0-2.838-1.739-9.741-2.189-15.433a9.936 9.936 0 00-1.945-4.786 10.976 10.976 0 00-4.174-3.341z"/>
  <path stroke="#263238" stroke-linecap="round" stroke-linejoin="round" d="M354.764 278.661a13.671 13.671 0 00-9.177-.822c-5.7 1.225-5.7 4.064-5.7 8.128v4.063M351.27 295.304l-1.755-6.902M344.266 294.497l-.434-2.838"/>
  <path fill="#CFCFCF" stroke="#263238" stroke-linecap="round" stroke-linejoin="round" d="M319.762 284.338s.435-.807-2.64-6.499a8.773 8.773 0 00-2.991-3.365 9.691 9.691 0 00-4.387-1.569 9.923 9.923 0 00-4.652.634 9.191 9.191 0 00-3.716 2.672c-4.83 5.289-5.699 6.917-2.624 10.562 3.075 3.646 8.307 6.499 9.177 9.353.869 2.853 4.83 10.547 9.193 12.998 4.363 2.45 7.889 2.031 10.948-1.629s1.755-7.32 0-13.446c-1.755-6.125-8.308-9.711-8.308-9.711z"/>
  <path stroke="#263238" stroke-linecap="round" stroke-linejoin="round" d="M318.007 305.867s-3.51-4.064-2.624-6.499c.885-2.436 6.553-5.692 8.742-4.064"/>
  <path fill="#CFCFCF" stroke="#263238" stroke-linecap="round" stroke-linejoin="round" d="M297.85 310.334s-8.308-2.032-9.66 7.305c-1.352 9.338 1.32 12.998 4.379 14.223 3.059 1.225 9.193 0 11.818 2.032 2.624 2.032 7.003 3.66 14.49 4.87 7.486 1.211 7.003-2.838 8.758-8.964 1.755-6.125-3.51-6.498-6.134-7.709a20.99 20.99 0 01-7.004-4.063c-2.624-2.406-10.932-8.098-16.647-7.694z"/>
  <path stroke="#263238" stroke-linecap="round" stroke-linejoin="round" d="M315.383 334.297a8.939 8.939 0 01-.764-6.097c.474-2.055 1.665-3.908 3.388-5.272M326.315 335.119l-6.118.404"/>
  <path fill="#CFCFCF" stroke="#263238" stroke-linecap="round" stroke-linejoin="round" d="M298.301 336.733s-5.249.821-4.363 6.499c.885 5.677 4.83 8.53 6.553 10.966 1.722 2.435 9.66 8.127 13.137 8.964 3.478.836 7.004-.404 6.569-6.081-.435-5.677-4.83-8.531-6.134-10.966-1.304-2.435-3.494-4.064-5.249-6.499-1.755-2.435-5.248-6.125-10.513-2.883z"/>
  <path stroke="#263238" stroke-linecap="round" stroke-linejoin="round" d="M318.007 352.987c-.639-1.033-1.636-1.835-2.828-2.277a6.116 6.116 0 00-3.741-.158c-4.379 1.21-7.003 4.049-5.683 6.499 1.32 2.45 7.873 6.081 7.873 6.081"/>
  <path fill="#263238" stroke="#263238" stroke-linecap="round" stroke-linejoin="round" d="M315.125 204.26c4.345 2.754 8.01 6.333 10.752 10.501 2.742 4.167 4.499 8.827 5.155 13.672 0 0 1.014-22.261-15.907-24.173zM315.463 217.452s6.44 6.275 8.131 9.412c1.69 3.137-.338-7.844-8.131-9.412z"/>
  <path fill="#CFCFCF" stroke="#263238" stroke-linecap="round" stroke-linejoin="round" d="M388.944 218.751s-.87-8.964-6.971-2.838c-6.102 6.125-4.347 18.197-3.043 24.262 1.304 6.066 7.84 11.713 7.84 11.713s1.739 12.132 3.043 18.182c1.304 6.051 10.771 23.8 13.814 28.655 3.043 4.856 13.283 16.614 20.624 17.809 9.757 1.598 19.143-3.212 22.186-6.439 3.043-3.227 11.27-14.94 17.855-21.828 6.585-6.887 13.073-21.827 13.073-21.827s11.753-21.827 11.27-27.49a10.574 10.574 0 00-1.064-4.413 11.329 11.329 0 00-2.848-3.669s5.667-17.779 5.667-30.717c0-12.938-12.639-29.506-23.957-34.362-11.318-4.855-35.726-9.307-50.972.404-15.247 9.711-22.202 23.037-23.523 29.88-1.32 6.842-2.994 22.678-2.994 22.678z"/>
  <path stroke="#263238" stroke-linecap="round" stroke-linejoin="round" d="M484.336 234.558a22.772 22.772 0 01-.869 10.099c-1.755 5.663-6.102 8.083-6.102 14.94 0 6.858-4.83 16.569-4.83 16.569"/>
  <path fill="#263238" stroke="#263238" stroke-linecap="round" stroke-linejoin="round" d="M449.48 241.789l26.581-.807a12.198 12.198 0 01-.454 7.093c-.852 2.28-2.366 4.298-4.376 5.83-6.939 5.259-22.621-.806-21.751-12.116zM439.289 240.683l-30.349-9.815s-2.834 13.042 5.957 17.928c12.896 7.276 23.522-6.096 24.392-8.113zM437.92 256.385s-9.129 8.158-5.41 9.413a8.67 8.67 0 003.711.153 8.373 8.373 0 003.39-1.408s3.719 6.274 6.762 4.392c3.042-1.883 1.368-10.353-.677-12.863a4.66 4.66 0 00-1.756-1.329 5.016 5.016 0 00-2.221-.416 4.988 4.988 0 00-2.174.593 4.582 4.582 0 00-1.625 1.465zM449.786 295.304c-1.898 2.887-4.447 5.359-7.471 7.246a45.765 45.765 0 01-6.005 3.421c-4.057 1.898-15.569-2.809-17.936-5.02a19.005 19.005 0 01-3.381-6.827c-1.288-3.944-2.093-8.591-1.352-11.384a12.03 12.03 0 012.536-4.194 13.114 13.114 0 014.081-2.963c2.699-1.468 5.896-1.937 8.952-1.314l16.534 3.839a6.263 6.263 0 013.022 1.677 5.553 5.553 0 011.535 2.94c0 .269.096.567.145.881.531 3.765.933 8.934-.66 11.698z"/>
  <path fill="#fff" stroke="#263238" stroke-linecap="round" stroke-linejoin="round" d="M436.31 305.971a45.782 45.782 0 006.07-3.421 28.763 28.763 0 006.134-5.349c-.081-3.705-1.932-4.676-4.09-1.269-2.366 3.764-4.733 4.392-8.452 4.392-3.719 0-11.834-1.569-14.2-5.02-2.367-3.451-.677-6.589-3.736-8.157-3.059-1.569-3.381 2.51-3.381 2.51s-.144.821-.354 2.076c.21.807.435 1.614.693 2.391a18.972 18.972 0 003.381 6.827c2.302 2.211 13.813 6.918 17.935 5.02zM450.607 285.19c-.081-.553-.145-1.076-.226-1.584-.08-.508-.096-.612-.144-.881a5.555 5.555 0 00-1.536-2.94 6.256 6.256 0 00-3.021-1.677l-16.534-3.839c-3.056-.623-6.253-.154-8.952 1.314-.893.448-1.734.979-2.512 1.584 1.61 1.389 6.183 4.601 15.521 6.529a68.713 68.713 0 0017.404 1.494z"/>
  <path stroke="#263238" stroke-linecap="round" stroke-linejoin="round" d="M433.879 249.498s-3.381 3.765-12.172 6.29c-8.79 2.525-14.892-.628-15.906-4.408M450.8 252.606s3.22 8.112 14.876 7.47M442.75 239.115c1.014-.314 1.014-.628 1.014-4.079 0-3.451-6.086-6.603-8.79-8.486M446.389 238.487c.17-1.533.89-2.97 2.044-4.078 2.029-2.197 14.877-4.482 15.891-4.482M428.131 259.209a85.498 85.498 0 01-9.821 5.02c-5.747 2.51-12.171 1.494-12.171 13.177M450.8 264.543a39.575 39.575 0 005.41 9.098c3.043 3.451 2.028 9.113 0 15.388M475.159 262.944s-1.014 2.51-6.44 3.451c-5.425.941-10.481.628-10.143 5.334M398.024 248.213s.676 5.976 5.072 8.486c4.395 2.51 7.776 3.451 5.747 6.589M401.405 227.178a4.895 4.895 0 01-.907-2.824c0-1.003.315-1.984.907-2.824 2.029-3.137 3.719-8.784 3.043-17.27"/>
  <path fill="#263238" stroke="#263238" stroke-linecap="round" stroke-linejoin="round" d="M386.754 245.449s4.074-8.799 2.029-14.133-6.231-13.775-6.231-13.775-2.206 6.171-.756 9.144a760.492 760.492 0 012.994 6.23s-5.554.806-4.089 4.601c1.465 3.795 1.755-.269 3.22-.538 1.465-.269 2.833 8.471 2.833 8.471z"/>
  <path stroke="#263238" stroke-linecap="round" stroke-linejoin="round" d="M406.139 179.459s7.438 7.231 24.021 10.369M452.49 191.396a80.97 80.97 0 0032.2.628M413.239 178.832l-5.41 7.544M424.75 182.925l-3.381 7.844M456.21 187.318l-1.015 8.784M471.762 187.945l-.338 12.55M423.736 212.148s8.79 3.765 15.214 6.275c6.424 2.51 18.612 1.882 26.05 1.255M469.734 213.059s-16.905.314-20.93 0M423.06 203.005l14.538 5.034"/>
  <path fill="#7E57C2" stroke="#263238" stroke-linecap="round" stroke-linejoin="round" d="M427.455 241.774a3.435 3.435 0 01-.649 2.013 3.846 3.846 0 01-1.745 1.338 4.175 4.175 0 01-2.252.212 3.999 3.999 0 01-1.999-.986 3.536 3.536 0 01-1.071-1.851 3.367 3.367 0 01.219-2.091 3.678 3.678 0 011.435-1.625 4.114 4.114 0 012.166-.611c1.03 0 2.019.379 2.749 1.054s1.143 1.591 1.147 2.547zM461.957 250.26c2.152 0 3.896-1.619 3.896-3.616 0-1.996-1.744-3.615-3.896-3.615s-3.896 1.619-3.896 3.615c0 1.997 1.744 3.616 3.896 3.616z"/>
  <path fill="#263238" stroke="#263238" stroke-linecap="round" stroke-linejoin="round" d="M414.237 304.044s3.719 4.781 12.606 5.841c5.18.669 10.454.308 15.472-1.06 0 0-7.454 6.08-15.472 4.9-8.018-1.18-12.606-9.681-12.606-9.681z"/>
  <path stroke="#263238" stroke-linecap="round" stroke-linejoin="round" d="M421.82 274.015a4.855 4.855 0 01-1.468-1.86 4.496 4.496 0 01-.368-2.279M437.099 275.733l.258-3.661M449.705 279.632a11.046 11.046 0 002.625-2.45M414.929 294.124s-3.043 2.076-3.043 3.541M422.657 303.745l-.789 2.435M442.315 302.55l-.225 4.362"/>
  <path fill="#6E6E6E" stroke="#263238" stroke-linecap="round" stroke-linejoin="round" d="M344.009 149.146h-98.951a3.353 3.353 0 01-2.277-.875 2.883 2.883 0 01-.943-2.113c0-.792.339-1.552.943-2.113a3.353 3.353 0 012.277-.875h98.951c.854 0 1.673.315 2.277.875.604.561.943 1.321.943 2.113 0 .392-.084.781-.245 1.143a2.99 2.99 0 01-.698.97 3.269 3.269 0 01-1.045.648 3.44 3.44 0 01-1.232.227z"/>
  <path fill="#7E57C2" stroke="#263238" stroke-linecap="round" stroke-linejoin="round" d="M276.711 143.065h-31.653c-.869 0-1.702.321-2.317.891a2.934 2.934 0 00-.959 2.15c0 .806.345 1.579.959 2.15.615.57 1.448.89 2.317.89h31.653v-6.081z"/>
  <g>
    <path fill="#CFCFCF" stroke="#263238" stroke-linecap="round" stroke-linejoin="round" d="M720.684 404.052H87.713v233.617h632.971V404.052z"/>
    <path fill="#263238" stroke="#263238" stroke-linecap="round" stroke-linejoin="round" d="M720.684 404.052H87.713v9.442h632.971v-9.442z"/>
    <path fill="#CFCFCF" stroke="#263238" stroke-linecap="round" stroke-linejoin="round" d="M500.936 423.25h-193.49v200.794h193.49V423.25z"/>
    <path fill="#CFCFCF" stroke="#263238" stroke-linecap="round" stroke-linejoin="round" d="M492.902 431.587H315.48v184.105h177.422V431.587z"/>
    <path stroke="#263238" stroke-linecap="round" stroke-linejoin="round" d="M404.19 431.796V616.26"/>
    <path fill="#A1A1A1" stroke="#263238" stroke-linecap="round" stroke-linejoin="round" d="M295.355 546.953H97.743v76.762h197.612v-76.762zM295.355 418.918H97.743v76.761h197.612v-76.761zM712.651 418.918H515.039v97.737h197.612v-97.737z"/>
    <path fill="#CFCFCF" stroke="#263238" stroke-linecap="round" stroke-linejoin="round" d="M712.651 525.963H515.039V623.7h197.612v-97.737z"/>
    <path fill="#263238" stroke="#263238" stroke-linecap="round" stroke-linejoin="round" d="M642.471 569.259h-57.252v11.16h57.252v-11.16zM223.677 515.729h-57.251v11.16h57.251v-11.16z"/>
    <path fill="#CFCFCF" stroke="#263238" stroke-linecap="round" stroke-linejoin="round" d="M732.534 390.995H75.864v15.418h656.67v-15.418z"/>
    <path fill="#263238" stroke="#263238" stroke-linecap="round" stroke-linejoin="round" d="M691.254 486.775h-160.05v29.895h160.05v-29.895z"/>
    <path fill="#CFCFCF" stroke="#263238" stroke-linecap="round" stroke-linejoin="round" d="M683.719 506.63c0-1.075-33.021-1.942-73.738-1.942s-73.738.867-73.738 1.942c0 1.076 33.021 1.957 73.738 1.957s73.738-.881 73.738-1.957zM116.129 424.012H99.901v71.174h16.228v-71.174zM134.886 424.012h-16.229v71.174h16.229v-71.174zM293.954 424.012h-16.229v71.174h16.229v-71.174zM276.824 424.012h-16.229v71.174h16.229v-71.174zM259.693 424.012h-16.229v71.174h16.229v-71.174zM242.563 424.012h-16.229v71.174h16.229v-71.174zM225.432 424.012h-16.228v71.174h16.228v-71.174zM151.93 423.323l-15.61 4.118 20.974 68.462 15.61-4.118-20.974-68.462z"/>
  </g>
  <g>
    <path fill="#fff" d="M225.625 695.89s35.887-51.05 42.456-71.562c6.569-20.513 1.401-49.691-.596-68.172-1.996-18.48 7.825-65.213 7.825-65.213s-8.952-32.33-3.977-35.109c4.975-2.778 22.54-3.869 29.656-6.095 7.117-2.226 11.351-1.658 17.71 1.3a49.978 49.978 0 019.161 5.169l-4.379 6.275-16.728 3.331 10.755 52.096s32.651 7.769 34.245 10.353c1.594 2.585.193 13.446-3.22 22.53-3.414 9.084-1.787 15.343-7.761 17.181-5.973 1.838-9.563 2.988-10.159 1.3-.595-1.688-8.162 27.161-13.54 36.214a121.231 121.231 0 00-9.145 20.692s-9.225 84.665-7.84 86.652"/>
    <path stroke="#263238" stroke-linecap="round" stroke-linejoin="round" d="M225.625 695.89s35.887-51.05 42.456-71.562c6.569-20.513 1.401-49.691-.596-68.172-1.996-18.48 7.825-65.213 7.825-65.213s-8.952-32.33-3.977-35.109c4.975-2.778 22.54-3.869 29.656-6.095 7.117-2.226 11.351-1.658 17.71 1.3a49.978 49.978 0 019.161 5.169l-4.379 6.275-16.728 3.331 10.755 52.096s32.651 7.769 34.245 10.353c1.594 2.585.193 13.446-3.22 22.53-3.414 9.084-1.787 15.343-7.761 17.181-5.973 1.838-9.563 2.988-10.159 1.3-.595-1.688-8.162 27.161-13.54 36.214a121.231 121.231 0 00-9.145 20.692s-9.225 84.665-7.84 86.652"/>
    <path fill="#263238" stroke="#263238" stroke-linecap="round" stroke-linejoin="round" d="M306.157 474.016s-14.49-4.258-16.583-6.125c.185 3.489 1.399 6.864 3.51 9.756 3.51 4.751 2.963 14.507 2.963 14.507l20.769 36.528 12.622 42.952c.628-1.763 1.047-2.704 1.159-2.36.596 1.658 4.186.553 10.159-1.3 5.973-1.853 4.38-8.127 7.761-17.181a66.987 66.987 0 003.493-13.939v-7.858a4.255 4.255 0 00-.306-.733c-1.61-2.584-34.244-10.353-34.244-10.353l-8.34-40.652-2.963-3.242z"/>
    <path stroke="#263238" stroke-linecap="round" stroke-linejoin="round" d="M328.698 547.924l6.118-11.787M284.181 464.739c4.378 3.397 9.356 6.066 14.715 7.888"/>
    <path fill="#fff" d="M623.859 651.175s-65.06-53.784-66.284-55.95c-1.224-2.167-30.3-70.383-35.339-81.902-5.04-11.518-13.653-13.939-17.71-18.988-4.058-5.05-12.88-26.892-15.151-37.096-2.27-10.204.145-18.615-20.93-18.869-21.074-.254-10.915-2.525-18.289-1.494-7.374 1.03-10.369 7.858-10.369 7.858l20.721-2.39 3.977 1.494c3.977 1.494 4.234 6.723 4.234 6.723s3.687 35.572 4.363 42.534c.676 6.962 5.088 36.961 5.088 36.961s-26.227-8.501-28.417-9.516c-2.189-1.016-9.547 7.589-11.865 15.059-2.319 7.47 3.815 11.952 9.547 18.989 5.732 7.036 15.826 7.35 15.826 7.35l43.889 43.416 52.389 92.344"/>
    <path stroke="#263238" stroke-linecap="round" stroke-linejoin="round" d="M623.859 651.175s-65.06-53.784-66.284-55.95c-1.224-2.167-30.3-70.383-35.339-81.902-5.04-11.518-13.653-13.939-17.71-18.988-4.058-5.05-12.88-26.892-15.151-37.096-2.27-10.204.145-18.615-20.93-18.869-21.074-.254-10.915-2.525-18.289-1.494-7.374 1.03-10.369 7.858-10.369 7.858l20.721-2.39 3.977 1.494c3.977 1.494 4.234 6.723 4.234 6.723s3.687 35.572 4.363 42.534c.676 6.962 5.088 36.961 5.088 36.961s-26.227-8.501-28.417-9.516c-2.189-1.016-9.547 7.589-11.865 15.059-2.319 7.47 3.815 11.952 9.547 18.989 5.732 7.036 15.826 7.35 15.826 7.35l43.889 43.416 52.389 92.344"/>
    <path fill="#263238" stroke="#263238" stroke-linecap="round" stroke-linejoin="round" d="M477.526 499.399a80.13 80.13 0 01-5.41-16.239c.451 4.482.821 8.127.998 9.905.628 6.334 4.331 31.792 4.991 36.304a35.146 35.146 0 012.528-1.315 23.64 23.64 0 002.286-9.875c.081-5.886-1.207-10.891-5.393-18.78zM476.447 556.455c.548-2.256-3.107-19.885-3.51-22.275-.225-1.33 2.238-3.093 4.428-4.393-4.46-1.494-25.631-8.351-27.579-9.248-1.949-.896-9.548 7.59-11.866 15.06-2.319 7.47 3.816 11.952 9.547 18.989 5.732 7.036 15.826 7.35 15.826 7.35l1.965 1.942c5.828-3.316 10.964-6.469 11.189-7.425z"/>
    <path fill="#7E57C2" stroke="#263238" stroke-linecap="round" stroke-linejoin="round" d="M468.059 447.871l8.501 69.905c.199 1.66-.32 3.325-1.443 4.63-1.123 1.305-2.758 2.144-4.546 2.332l-155.848 16.269c-1.791.185-3.587-.296-4.997-1.337-1.409-1.042-2.316-2.56-2.522-4.22l-8.469-69.905a5.87 5.87 0 01.223-2.455 6.142 6.142 0 011.22-2.19 6.712 6.712 0 012.031-1.588 7.175 7.175 0 012.532-.744l155.832-16.254c1.786-.181 3.576.303 4.979 1.344 1.403 1.042 2.305 2.557 2.507 4.213z"/>
    <path fill="#263238" stroke="#263238" stroke-linecap="round" stroke-linejoin="round" d="M341.646 472.065l-17.583 1.836 2.061 16.999 17.583-1.836-2.061-16.999zM345.682 505.365l-17.583 1.836 2.061 16.999 17.583-1.836-2.061-16.999z"/>
    <path fill="#263238" stroke="#263238" stroke-linecap="round" stroke-linejoin="round" d="M326.13 490.905l-18.318 1.913 1.978 16.316 18.319-1.913-1.979-16.316zM362.016 487.146l-18.318 1.912 1.978 16.316 18.319-1.912-1.979-16.316zM432.317 504.12c-.267-2.202-1.231-4.282-2.772-5.976-1.541-1.694-3.588-2.925-5.883-3.539a12.973 12.973 0 00-7.011.091c-2.276.673-4.285 1.957-5.775 3.69-1.489 1.733-2.39 3.837-2.591 6.046-.2 2.208.31 4.423 1.466 6.362 1.156 1.94 2.906 3.518 5.028 4.535a12.897 12.897 0 006.896 1.177c3.181-.334 6.088-1.826 8.084-4.149 1.995-2.322 2.916-5.285 2.558-8.237zM463.374 459.375c-.269-2.201-1.236-4.279-2.777-5.97-1.542-1.692-3.589-2.921-5.883-3.534a12.978 12.978 0 00-7.007.093c-2.274.673-4.283 1.957-5.771 3.689-1.489 1.732-2.391 3.834-2.592 6.041a10.539 10.539 0 001.461 6.36c1.153 1.94 2.9 3.518 5.02 4.537a12.888 12.888 0 006.891 1.184c3.185-.334 6.096-1.827 8.095-4.153 1.998-2.325 2.92-5.291 2.563-8.247zM447.821 481.546c-.269-2.201-1.235-4.279-2.777-5.97-1.541-1.692-3.588-2.921-5.882-3.534a12.978 12.978 0 00-7.007.093c-2.275.673-4.283 1.957-5.772 3.689-1.488 1.732-2.39 3.834-2.591 6.041a10.53 10.53 0 001.46 6.36c1.154 1.94 2.901 3.518 5.021 4.536a12.877 12.877 0 006.89 1.185 12.742 12.742 0 004.496-1.326 11.895 11.895 0 003.605-2.823 10.932 10.932 0 002.164-3.889c.439-1.416.573-2.898.393-4.362zM396.422 490.515l-17.583 1.836.868 7.156 17.583-1.836-.868-7.156z"/>
    <path fill="#fff" stroke="#263238" stroke-linecap="round" stroke-linejoin="round" d="M344.186 454.445c6.89 8.486 22.701 13.446 40.25 11.549 17.549-1.898 31.861-9.876 36.563-19.557l-76.813 8.008zm46.818 65.258c-16.1 1.673-29.237 8.471-35.017 16.987l73.271-7.635c-7.696-7.126-22.218-11.026-38.254-9.352z"/>
    <path fill="#fff" d="M301.279 541.993s-4.379-24.935-6.762-31.553c-2.383-6.618-5.844-12.042-4.572-15.269 1.272-3.227 21.751-8.964 21.751-8.964s18-13.446 20.383-11.115c2.382 2.331 4.105 9.756 4.025 12.893-.081 3.138-3.929 7.709-8.05 9.831a152.911 152.911 0 00-13.251 8.964s4.83 21.962 10.964 35.617c6.134 13.655 8.501 39.77 6.682 49.107-1.819 9.338-31.17 35.363-31.17 35.363"/>
    <path stroke="#263238" stroke-linecap="round" stroke-linejoin="round" d="M301.279 541.993s-4.379-24.935-6.762-31.553c-2.383-6.618-5.844-12.042-4.572-15.269 1.272-3.227 21.751-8.964 21.751-8.964s18-13.446 20.383-11.115c2.382 2.331 4.105 9.756 4.025 12.893-.081 3.138-3.929 7.709-8.05 9.831a152.911 152.911 0 00-13.251 8.964s4.83 21.962 10.964 35.617c6.134 13.655 8.501 39.77 6.682 49.107-1.819 9.338-31.17 35.363-31.17 35.363"/>
    <g>
      <path fill="#fff" d="M490.857 534.852s-27.966-24.965-32.748-31.927c-4.782-6.962-7.502-3.481-11.721-5.124-4.218-1.644-21.091-3.84-28.191-7.142-7.1-3.301-13.508 6.35-8.211 12.147 5.107 5.39 11.405 9.696 18.467 12.624a158.524 158.524 0 0119.433 9.935s8.307 21.902 15.407 36.588 20.463 36.708 31.106 39.741a114.31 114.31 0 0019.191 3.794"/>
      <path stroke="#263238" stroke-linecap="round" stroke-linejoin="round" d="M490.857 534.852s-27.966-24.965-32.748-31.927c-4.782-6.962-7.502-3.481-11.721-5.124-4.218-1.644-21.091-3.84-28.191-7.142-7.1-3.301-13.508 6.35-8.211 12.147 5.107 5.39 11.405 9.696 18.467 12.624a158.524 158.524 0 0119.433 9.935s8.307 21.902 15.407 36.588 20.463 36.708 31.106 39.741a114.31 114.31 0 0019.191 3.794"/>
    </g>
    <path stroke="#263238" stroke-linecap="round" stroke-linejoin="round" d="M450.687 499.788s-5.377 3.75-7.277 8.501"/>
  </g>
</svg>
